<svg width="16" height="16" viewBox="0 0 512 512" xmlns="http://www.w3.org/2000/svg" fill="currentColor">
  <circle fill="#FAD24D" cx="256" cy="256" r="256"/> 
  <path fill="#666666" d="M49.359,118.027h370.52c12.173,0,22.133,9.959,22.133,22.133v228.246H27.227V140.16 C27.227,127.987,37.186,118.027,49.359,118.027z"/> 
  <path fill="#FFFFFF" d="M42.256,353.376h384.729V140.16c0-3.876-3.227-7.103-7.103-7.103H49.362 c-3.876,0-7.103,3.227-7.103,7.103v213.216h-0.003V353.376z"/> 
  <path fill="#ECF0F1" d="M50.218,163.474h368.805v85.374H50.218V163.474z"/> 
  <path fill="#B6B6B8" d="M7.082,368.406h455.076v12.782c0,7.029-5.753,12.782-12.782,12.782H19.861 c-7.029,0-12.782-5.753-12.782-12.782v-12.782H7.082z"/> 
  <path fill="#919191" d="M189.199,373.077h90.84l-9.731,6.463h-71.38l-9.731-6.463H189.199z"/> 
  <path fill="#666666" d="M331.128,198.396h136.094c4.316,0,7.814,3.498,7.814,7.814v179.945c0,4.316-3.498,7.814-7.814,7.814 H331.128c-4.316,0-7.814-3.498-7.814-7.814V206.21C323.314,201.894,326.813,198.396,331.128,198.396z"/> 
  <path fill="#FFFFFF" d="M332.814,212.237h132.724c0.501,0,0.907,0.406,0.907,0.907v161.608c0,0.501-0.406,0.907-0.907,0.907 H332.814c-0.501,0-0.907-0.406-0.907-0.907V213.145C331.907,212.644,332.313,212.237,332.814,212.237z"/> 
  <circle fill="#B6B6B8" cx="399.178" cy="384.487" r="5.096"/> 
  <path fill="#ECF0F1" d="M338.989,232.48h120.377v70.95H338.989V232.48z"/> 
  <path fill="#666666" d="M437.9,268.396h63.051c2.191,0,3.966,1.776,3.966,3.966v117.642c0,2.191-1.776,3.966-3.966,3.966 H437.9c-2.191,0-3.966-1.776-3.966-3.966V272.362C433.934,270.172,435.709,268.396,437.9,268.396z"/> 
  <path fill="#FFFFFF" d="M440.853,280.15h57.145c0.216,0,0.391,0.175,0.391,0.391v101.282c0,0.216-0.175,0.391-0.391,0.391 h-57.145c-0.216,0-0.391-0.175-0.391-0.391V280.54C440.462,280.325,440.638,280.15,440.853,280.15z"/> 
  <circle fill="#B6B6B8" cx="469.43" cy="387.561" r="3.586"/> 
  <path fill="#B6B6B8" d="M459.833,274.868h19.184c0.484,0,0.876,0.392,0.876,0.876v0.003c0,0.484-0.392,0.876-0.876,0.876 h-19.184c-0.484,0-0.876-0.392-0.876-0.876v-0.003C458.957,275.26,459.349,274.868,459.833,274.868z"/> 
  <path fill="#21D0C3" d="M426.986,156.83H42.256V140.16c0-3.876,3.227-7.103,7.103-7.103h370.52 c3.876,0,7.103,3.227,7.103,7.103v16.669H426.986z"/> 
  <path fill="#FFFFFF" d="M206.441,139.861H403.52c1.453,0,2.636,1.186,2.636,2.636v4.891c0,1.453-1.186,2.636-2.636,2.636 H206.441c-1.453,0-2.636-1.186-2.636-2.636v-4.891C203.805,141.047,204.99,139.861,206.441,139.861z"/> 
  <path fill="#ECF0F1" d="M58.624,139.68c3.292,0,5.962,2.668,5.962,5.962s-2.67,5.962-5.962,5.962 c-3.295,0-5.967-2.668-5.967-5.962S55.327,139.68,58.624,139.68z"/> 
  <path fill="#ECF0F1" d="M82.16,139.68c3.295,0,5.962,2.668,5.962,5.962s-2.668,5.962-5.962,5.962 c-3.292,0-5.962-2.668-5.962-5.962S78.868,139.68,82.16,139.68z"/> 
  <path fill="#ECF0F1" d="M105.702,139.68c3.292,0,5.962,2.668,5.962,5.962s-2.67,5.962-5.962,5.962 c-3.298,0-5.967-2.668-5.967-5.962S102.404,139.68,105.702,139.68z"/> 
</svg> 